<svg xmlns="http://www.w3.org/2000/svg" viewBox="0 0 512.001 512.001" style="enable-background:new 0 0 512.001 512.001" xml:space="preserve"><path style="fill:#d8d9dd" d="M160.309 444.174a39.525 39.525 0 0 0-18.987-10.577l73.62-111.108-12.715-12.715-12.715-12.715-111.109 73.62a39.537 39.537 0 0 0-10.577-18.987c-15.516-15.516-40.672-15.516-56.189 0-15.516 15.516-15.516 40.673 0 56.189a39.553 39.553 0 0 0 16.423 9.885c-9.16 18.469-6.063 41.472 9.321 56.855 15.383 15.383 38.387 18.481 56.855 9.321a39.547 39.547 0 0 0 9.885 16.423c15.516 15.516 40.672 15.516 56.189 0 15.515-15.518 15.515-40.675-.001-56.191z"/><path style="fill:#b7b9c0" d="M160.309 444.174a39.525 39.525 0 0 0-18.987-10.577l73.62-111.108-12.715-12.715L37.381 474.62c15.383 15.383 38.387 18.481 56.855 9.321a39.547 39.547 0 0 0 9.885 16.423c15.516 15.516 40.672 15.516 56.189 0 15.515-15.517 15.515-40.674-.001-56.19z"/><path style="fill:#f74d37" d="M46.232 250.295C148.735 125.176 229.44 144.12 229.44 144.12l22.022 22.022-74.165 105.6-131.065-21.447z"/><path style="fill:#c43d2c" d="M261.706 465.769C386.824 363.265 367.88 282.561 367.88 282.561l-22.022-22.022-105.6 74.165 21.448 131.065z"/><path style="fill:#edeef0" d="M454.681 169.143C503.279 80.499 512.001 0 512.001 0s-80.499 8.722-169.143 57.32C259.73 102.893 169.439 183.532 131.65 324.935l27.708 27.708 27.708 27.708c141.403-37.79 222.041-128.081 267.615-211.208z"/><path style="fill:#dcdee2" d="M454.681 169.143C503.279 80.499 512.001 0 512.001 0L398.77 113.231 159.358 352.642l27.708 27.708c141.403-37.789 222.041-128.08 267.615-211.207z"/><path style="fill:#bce8f7" d="M364.642 147.358c-14.652-14.652-38.491-14.651-53.143 0-14.652 14.652-14.652 38.491-.001 53.143 14.651 14.651 38.491 14.651 53.143 0 14.652-14.652 14.652-38.492.001-53.143zM275.76 236.24c-14.652-14.652-38.491-14.651-53.143 0-14.651 14.651-14.651 38.49 0 53.142 14.651 14.651 38.491 14.652 53.142 0 14.652-14.649 14.652-38.49.001-53.142z"/><path style="fill:#8ec1d6" d="M364.642 200.501c14.651-14.652 14.652-38.491 0-53.143l-53.143 53.143c14.652 14.651 38.491 14.651 53.143 0zM275.759 289.384c14.652-14.651 14.652-38.491 0-53.143l-53.142 53.142c14.652 14.651 38.491 14.653 53.142.001z"/><path style="fill:#f9d026" d="M512.001 0s-80.499 8.722-169.143 57.32l55.911 55.912 55.912 55.912C503.279 80.499 512.001 0 512.001 0z"/><path style="fill:#e7c224" d="M454.681 169.143C503.279 80.499 512.001 0 512.001 0L398.77 113.231l55.911 55.912z"/></svg>